<?xml version="1.0" standalone="no"?>
<!DOCTYPE svg PUBLIC "-//W3C//DTD SVG 20010904//EN"
 "http://www.w3.org/TR/2001/REC-SVG-20010904/DTD/svg10.dtd">
<svg version="1.0" xmlns="http://www.w3.org/2000/svg"
 width="1280.000000pt" height="853.000000pt" viewBox="0 0 1280.000000 853.000000"
 preserveAspectRatio="xMidYMid meet">

<g transform="translate(0.000000,853.000000) scale(0.100000,-0.100000)"
fill="#000000" stroke="none">
<path d="M0 4265 l0 -4265 6400 0 6400 0 0 4265 0 4265 -6400 0 -6400 0 0
-4265z m4167 3089 c-3 -3 -12 -4 -19 -1 -8 3 -5 6 6 6 11 1 17 -2 13 -5z m71
-15 c141 1 263 -3 270 -7 9 -7 12 -73 10 -296 l-3 -288 -240 258 c-279 300
-325 351 -307 340 6 -4 128 -7 270 -7z m0 -314 l282 -304 0 -115 0 -116 -327
353 c-179 193 -334 361 -344 371 -10 11 -21 17 -24 14 -3 -2 152 -175 345
-382 l350 -378 0 -474 c0 -309 3 -474 10 -474 7 0 10 309 10 906 l0 907 108
-7 c376 -25 780 -105 1093 -217 l116 -42 -10 -32 c-10 -33 -3 -100 11 -109 5
-3 6 21 4 52 -5 72 15 102 68 104 19 0 140 -23 267 -51 128 -28 241 -51 252
-51 24 0 61 -45 61 -75 0 -18 7 -24 35 -29 19 -4 35 -12 35 -18 0 -6 -17 -33
-37 -61 -58 -79 -54 -88 102 -248 314 -324 484 -694 546 -1194 18 -140 15
-533 -5 -750 -111 -1201 -546 -2338 -1153 -3011 -51 -57 -97 -105 -101 -108
-5 -3 -185 45 -401 106 l-392 112 7 44 6 43 -38 -7 c-77 -14 -79 -16 -91 -91
-22 -136 -51 -161 -78 -68 -19 66 -44 74 -75 23 -23 -39 -29 -70 -39 -229 -8
-121 -23 -178 -48 -186 -12 -4 -21 23 -41 131 -8 42 -23 73 -50 110 -49 63
-57 81 -67 131 -11 62 -45 135 -64 135 -77 1 -327 23 -388 35 -42 8 -77 14
-78 12 -1 -1 22 -182 52 -401 29 -219 52 -400 50 -402 -1 -2 -50 10 -107 27
-122 35 -318 111 -442 172 -49 23 -88 38 -88 32 0 -5 -7 -66 -15 -135 -14
-117 -14 -126 3 -138 16 -12 144 -54 202 -66 35 -7 116 -61 130 -85 9 -18 7
-21 -12 -25 -13 -2 -86 -16 -164 -30 -77 -14 -154 -26 -170 -26 -19 0 -57 17
-100 45 -38 25 -81 45 -96 45 -28 0 -28 -1 -28 -63 0 -65 10 -85 50 -100 12
-4 12 -6 -2 -6 -10 -1 -27 9 -38 22 -21 21 -21 28 -15 149 6 103 0 295 -18
555 -2 28 -15 40 -112 109 -256 181 -522 417 -746 661 l-84 92 -209 -330
c-116 -181 -211 -329 -213 -329 -6 0 -8 -4 212 345 111 176 253 401 315 500
139 220 176 294 231 455 23 69 44 127 46 129 2 3 69 -15 148 -39 l146 -44 37
-69 c31 -57 39 -66 47 -51 18 30 57 75 62 70 3 -3 -7 -21 -22 -40 -25 -32 -25
-36 -9 -37 14 0 11 -4 -8 -11 l-28 -10 0 -506 0 -507 158 77 c86 43 209 97
272 121 l115 43 27 235 c14 129 32 286 38 349 7 63 13 116 14 117 5 5 450
-137 455 -146 4 -5 35 -138 71 -295 51 -230 67 -286 80 -286 9 0 24 -16 33
-35 17 -36 31 -43 43 -24 4 8 13 4 26 -12 l19 -24 -7 38 c-3 20 -2 43 4 50 31
38 13 180 -63 513 l-5 22 70 -21 70 -20 0 -249 c0 -159 4 -248 10 -248 7 0 10
511 10 1512 0 1004 -3 1509 -10 1502 -6 -6 -11 -445 -12 -1256 l-3 -1246 -65
20 c-36 11 -67 22 -69 23 -1 2 -16 63 -31 135 -15 72 -30 133 -32 136 -5 4
-160 -45 -169 -55 -4 -3 1 -39 11 -78 9 -40 14 -73 11 -73 -3 0 -106 30 -228
67 l-222 68 -6 65 c-9 92 -33 215 -57 285 -43 128 -351 855 -362 855 -15 0
-99 71 -92 77 3 3 22 -9 43 -26 21 -17 41 -31 45 -31 6 0 -32 102 -54 143 -8
16 -11 17 -21 4 -7 -8 -241 -229 -522 -492 -280 -263 -518 -485 -527 -494 -12
-11 -22 -46 -30 -101 -10 -77 -18 -96 -77 -197 -36 -62 -68 -113 -71 -113 -3
0 -25 32 -50 70 -25 38 -48 69 -52 67 -4 -1 -170 -155 -369 -342 -199 -187
-384 -360 -411 -384 l-50 -44 -21 22 -22 23 82 76 c604 567 753 708 753 713 0
4 -28 54 -61 111 -95 160 -194 352 -178 346 8 -3 136 -42 285 -88 l271 -83
519 487 c286 268 519 491 518 494 -2 20 -127 48 -357 81 l-257 38 -35 -42
c-200 -245 -330 -567 -377 -935 -12 -99 -13 -71 -18 450 l-5 555 -3 -553 -2
-552 -27 6 c-16 4 -38 11 -51 15 l-22 9 3 547 c3 535 3 550 25 618 12 39 21
77 19 85 -1 8 -11 -18 -22 -57 -10 -40 -22 -73 -27 -73 -4 0 -9 -251 -10 -558
l-3 -559 -218 67 c-120 37 -223 72 -227 76 -5 5 -38 77 -73 159 -264 615 -346
1165 -257 1715 82 506 321 964 676 1299 49 46 92 91 96 100 4 9 8 -411 10
-934 l3 -950 5 947 5 946 39 31 c21 17 43 31 47 31 5 0 10 -413 12 -917 l2
-918 3 927 2 927 57 43 c202 149 511 299 816 397 250 80 659 155 867 160 l55
1 283 -305z m1676 76 c-17 -4 -37 -11 -45 -15 -8 -4 -5 0 5 8 11 9 31 16 45
15 24 -1 24 -2 -5 -8z m-3273 -3019 c-15 -27 -132 -134 -174 -160 -53 -31 -45
-13 11 25 26 18 74 59 107 93 33 33 61 60 63 60 1 0 -2 -8 -7 -18z m290 -528
c-11 -55 -28 -123 -36 -151 -16 -52 -16 -53 -53 -52 -30 2 -32 3 -9 6 35 6 39
15 71 153 15 63 29 126 33 140 3 14 7 20 10 14 2 -7 -5 -56 -16 -110z m229
-213 c-8 -5 -51 -16 -95 -26 -44 -9 -111 -24 -149 -32 l-68 -15 43 -19 c23
-11 63 -25 88 -31 52 -12 85 -34 36 -23 -50 11 -128 37 -159 52 -27 14 -28 14
-22 -2 3 -10 44 -85 90 -166 47 -82 80 -149 74 -149 -6 0 -68 18 -139 40
l-127 40 24 79 c13 43 31 97 39 121 25 70 25 70 -72 71 -49 0 -97 4 -108 9
-12 5 22 7 85 6 58 0 107 -4 110 -8 3 -4 82 8 175 27 185 37 197 38 175 26z
m-380 -80 c0 -13 -91 -101 -104 -101 -6 0 0 10 14 23 15 12 34 32 45 45 l18
22 -64 -6 c-35 -4 -61 -3 -57 1 6 6 61 16 136 24 6 0 12 -3 12 -8z m-803 -598
c-39 -70 -332 -561 -340 -568 -13 -13 -1 9 182 318 85 141 155 257 158 257 2
0 2 -3 0 -7z m549 -38 c-63 -56 -216 -139 -216 -117 0 4 15 14 34 20 41 15
175 101 195 125 7 9 19 17 25 17 6 -1 -11 -21 -38 -45z m-906 -565 c-6 -11
-13 -20 -16 -20 -2 0 0 9 6 20 6 11 13 20 16 20 2 0 0 -9 -6 -20z m-46 -77
c-15 -27 -36 -61 -46 -78 l-18 -30 42 -38 c28 -26 33 -32 13 -19 -69 45 -69
49 -18 135 25 42 47 77 50 77 3 0 -8 -21 -23 -47z m206 -187 c94 -82 169 -151
166 -154 -5 -4 -208 168 -321 273 -104 97 -10 24 155 -119z m-7 -130 c75 -59
137 -110 137 -112 0 -2 -83 -129 -184 -283 l-183 -279 -5 -84 c-6 -90 6 -214
22 -232 7 -9 -3 -12 -38 -12 -34 0 -63 -8 -97 -27 -26 -15 -49 -26 -50 -25 -6
11 -79 237 -94 291 -11 38 -31 87 -46 108 l-26 40 38 37 c21 20 50 46 65 57
21 16 54 85 149 315 67 162 125 305 130 318 11 27 -6 38 182 -112z m3747 -86
c195 -55 364 -104 374 -108 16 -7 8 -18 -63 -78 -47 -40 -89 -68 -99 -66 -17
4 -616 173 -618 176 -2 1 11 92 21 153 4 19 11 30 18 28 7 -2 172 -50 367
-105z m-21 -202 c149 -42 247 -75 235 -78 -11 -3 -56 -30 -99 -61 -132 -93
-234 -146 -355 -185 -63 -20 -119 -42 -125 -49 -10 -12 -103 -41 -109 -34 -2
2 11 114 30 249 18 135 33 250 34 257 0 8 20 6 68 -8 37 -11 181 -52 321 -91z
m1847 -143 l0 -80 -3 78 -4 77 -628 0 c-533 0 -635 -2 -671 -15 -23 -8 -48
-15 -54 -14 -6 0 12 9 39 19 47 17 89 18 685 17 l635 -2 1 -80z m-1506 -1
c-74 -24 -139 -43 -145 -43 -14 1 247 87 265 87 8 0 -46 -20 -120 -44z m1370
29 c-8 -3 -166 -59 -350 -124 l-335 -119 -111 0 c-108 0 -112 -1 -128 -25 -24
-37 -57 -41 -106 -13 l-41 23 -30 -37 c-22 -27 -39 -38 -59 -38 -34 0 -76 32
-84 65 l-6 25 -323 1 -322 0 320 95 c176 52 350 103 387 113 l68 19 15 -51 c8
-28 13 -53 10 -56 -3 -2 -114 -20 -247 -38 -221 -30 -290 -43 -227 -43 13 0
130 14 259 30 129 16 267 30 305 31 53 1 63 3 40 9 -16 4 -46 8 -66 9 -38 1
-34 -5 -65 102 -4 14 38 16 433 18 241 1 440 4 442 7 2 2 56 4 120 3 64 0 109
-3 101 -6z m-1629 -109 c-58 -19 -106 -32 -108 -30 -5 5 176 64 197 64 8 0
-32 -15 -89 -34z m1756 -151 c-2 -27 -3 -5 -3 47 0 52 1 74 3 48 2 -27 2 -69
0 -95z m-6152 -6 c-21 -52 -19 -71 19 -162 19 -44 37 -93 41 -110 3 -16 -7 4
-23 45 -16 41 -36 89 -45 107 -10 18 -17 43 -17 57 0 26 30 110 36 103 3 -2
-3 -20 -11 -40z m3952 -39 c-3 -8 -6 -5 -6 6 -1 11 2 17 5 13 3 -3 4 -12 1
-19z m-940 -25 c-3 -10 -5 -4 -5 12 0 17 2 24 5 18 2 -7 2 -21 0 -30z m852
-25 c-14 -94 -18 -104 -12 -33 5 64 9 85 17 85 2 0 -1 -24 -5 -52z m2278 -80
c-2 -24 -4 -5 -4 42 0 47 2 66 4 43 2 -24 2 -62 0 -85z m-3120 35 c-3 -10 -5
-2 -5 17 0 19 2 27 5 18 2 -10 2 -26 0 -35z m897 -17 c-10 -31 -19 -54 -22
-52 -2 2 4 29 14 60 10 31 19 54 22 52 2 -2 -4 -29 -14 -60z m1306 37 c0 -5
-260 -7 -578 -5 l-578 2 -23 -40 c-12 -21 -26 -42 -32 -46 -5 -3 4 17 21 45
l32 51 579 0 c318 0 579 -3 579 -7z m-2510 -23 c42 -9 41 -9 -14 -4 -33 3 -69
10 -80 15 -23 10 14 5 94 -11z m2634 -8 c-9 -16 -25 -39 -36 -53 l-20 -24 16
28 c28 48 48 77 53 77 2 0 -3 -13 -13 -28z m289 21 c-46 -2 -120 -2 -165 0
-46 1 -9 3 82 3 91 0 128 -2 83 -3z m345 -45 l-1 -43 -4 37 -4 37 -102 4 -102
3 108 2 107 2 -2 -42z m-5548 -160 c7 -14 34 -40 61 -58 65 -41 107 -96 92
-118 -9 -15 -39 -17 -241 -20 -268 -3 -256 -7 -266 103 l-5 60 13 -68 c7 -37
17 -72 23 -78 6 -6 99 -8 239 -7 206 3 229 5 232 20 4 19 -66 91 -110 114 -15
8 -35 29 -44 46 -21 41 -64 167 -64 187 1 9 13 -22 29 -69 15 -47 34 -97 41
-112z m4775 165 c-3 -16 -10 -32 -15 -37 -5 -5 -4 7 2 27 13 43 23 50 13 10z
m-2395 7 c11 -8 7 -9 -15 -4 -37 8 -45 14 -19 14 10 0 26 -5 34 -10z m217 -52
c-2 -13 -4 -5 -4 17 -1 22 1 32 4 23 2 -10 2 -28 0 -40z m-204 -6 c-23 -31
-134 -92 -166 -91 -13 0 -5 6 20 14 62 19 133 63 145 91 6 13 14 22 16 19 3
-3 -3 -18 -15 -33z m1014 -29 c-3 -10 -5 -2 -5 17 0 19 2 27 5 18 2 -10 2 -26
0 -35z m136 20 c-13 -2 -35 -2 -50 0 -16 2 -5 4 22 4 28 0 40 -2 28 -4z m1290
0 c-13 -2 -33 -2 -45 0 -13 2 -3 4 22 4 25 0 35 -2 23 -4z m824 0 c-20 -2 -52
-2 -70 0 -17 2 0 4 38 4 39 0 53 -2 32 -4z m-3050 -35 c-3 -8 -6 -5 -6 6 -1
11 2 17 5 13 3 -3 4 -12 1 -19z m793 -14 c0 -9 -68 -34 -92 -33 -13 0 -2 6 25
13 26 7 50 16 54 19 8 8 13 9 13 1z m-749 -22 c-7 -2 -18 1 -23 6 -8 8 -4 9
13 5 13 -4 18 -8 10 -11z m62 -9 c-7 -2 -21 -2 -30 0 -10 3 -4 5 12 5 17 0 24
-2 18 -5z m-3076 -40 c-3 -10 -5 -4 -5 12 0 17 2 24 5 18 2 -7 2 -21 0 -30z
m2546 30 c-13 -2 -35 -2 -50 0 -16 2 -5 4 22 4 28 0 40 -2 28 -4z m620 0 c-13
-2 -35 -2 -50 0 -16 2 -5 4 22 4 28 0 40 -2 28 -4z m460 0 c-13 -2 -35 -2 -50
0 -16 2 -5 4 22 4 28 0 40 -2 28 -4z m-1243 -34 c-47 -15 -101 -28 -120 -27
-30 0 -27 2 15 9 28 4 75 17 105 28 30 11 62 19 70 19 8 0 -23 -13 -70 -29z
m1072 24 c-51 -2 -132 -2 -180 0 -48 1 -6 3 93 3 99 0 138 -2 87 -3z m-1254
-50 c-16 -2 -40 -2 -55 0 -16 2 -3 4 27 4 30 0 43 -2 28 -4z"/>
<path d="M6422 6960 c-33 -14 -56 -74 -43 -113 6 -17 10 -32 8 -33 -1 -2 -115
23 -252 55 -228 53 -268 61 -253 46 2 -3 125 -34 273 -69 262 -63 269 -65 304
-49 20 9 40 17 46 17 5 1 11 10 12 21 l3 20 -9 -20 c-9 -19 -10 -19 -10 -1 -1
19 -2 19 -21 -2 -12 -12 -25 -22 -30 -22 -4 0 -15 -2 -23 -6 -9 -3 -19 6 -27
25 -22 55 10 121 59 121 20 0 23 2 11 10 -18 11 -18 11 -48 0z"/>
<path d="M3627 6204 c-15 -8 -71 -24 -125 -35 -126 -27 -199 -66 -270 -145
-49 -56 -58 -61 -80 -53 -14 6 -30 5 -40 -1 -15 -8 -14 -9 6 -10 46 0 60 -16
67 -80 4 -33 11 -60 16 -60 16 0 29 39 29 87 0 44 3 50 33 67 52 31 76 57 83
93 5 29 28 53 49 53 10 0 -44 -91 -71 -121 -31 -33 -30 -39 5 -29 24 7 29 5
24 -6 -4 -12 0 -11 23 1 16 8 38 15 49 16 20 1 20 1 0 7 -19 7 -19 9 13 37 34
29 35 29 27 5 -4 -14 -10 -31 -13 -39 -12 -31 62 25 89 68 l28 44 11 -27 c14
-38 13 -46 -9 -46 -10 0 -25 -8 -32 -17 -15 -18 -16 -18 34 2 12 5 17 2 17
-11 1 -16 4 -15 25 9 28 32 35 33 36 10 0 -12 5 -8 14 12 21 45 18 186 -4 185
-3 -1 -19 -8 -34 -16z"/>
<path d="M2851 6088 c-6 -35 -9 -72 -6 -83 2 -11 7 -37 10 -57 7 -46 18 -48
35 -8 7 16 16 28 20 25 4 -3 15 -33 25 -68 13 -49 15 -74 7 -115 l-9 -52 31
28 c17 15 43 34 56 43 l25 17 -85 166 c-46 91 -87 166 -91 166 -4 0 -12 -28
-18 -62z"/>
<path d="M5216 6109 c-46 -11 -76 -34 -76 -59 0 -9 -11 -22 -25 -28 -14 -7
-25 -20 -25 -31 0 -10 -7 -24 -15 -31 -9 -7 -14 -19 -11 -26 3 -7 -2 -18 -10
-24 -8 -7 -14 -21 -14 -30 0 -23 41 -36 135 -45 83 -7 69 9 -17 19 -31 3 -69
11 -84 16 -25 10 -26 12 -12 26 14 14 23 14 89 1 105 -22 159 -29 159 -19 0 5
-50 16 -112 25 -61 9 -113 19 -116 21 -2 3 -2 13 2 22 4 11 13 14 29 10 35
-10 243 -20 234 -10 -4 4 -59 11 -123 15 -63 4 -117 9 -120 12 -2 2 -2 12 2
21 5 14 27 16 153 17 136 1 141 2 76 11 -38 5 -96 8 -128 6 -47 -2 -57 0 -57
13 0 24 31 47 75 54 48 9 82 25 50 24 -11 -1 -38 -5 -59 -10z"/>
<path d="M3556 5971 c-9 -14 5 -42 18 -38 15 5 14 39 -1 44 -6 2 -14 0 -17 -6z"/>
<path d="M3387 5937 c-3 -8 -1 -20 4 -28 11 -19 34 3 26 25 -8 20 -23 21 -30
3z"/>
<path d="M3101 5910 c11 -6 15 -18 12 -34 -4 -18 1 -27 17 -36 21 -11 21 -11
5 14 -16 25 -16 26 0 26 17 0 17 1 0 20 -10 11 -25 20 -34 20 -15 -1 -14 -1 0
-10z"/>
<path d="M3558 5882 c28 -14 52 -29 52 -32 0 -4 -11 -13 -25 -20 -14 -7 -23
-16 -20 -18 3 -3 16 1 30 8 38 21 32 48 -17 70 -64 29 -81 23 -20 -8z"/>
<path d="M3429 5763 c18 -35 52 -53 96 -52 22 1 31 3 20 6 -11 2 -30 6 -42 8
-12 3 -36 17 -54 32 -28 24 -31 25 -20 6z"/>
<path d="M3082 5449 c75 -106 92 -114 123 -57 11 21 22 38 25 38 3 0 24 -34
48 -75 24 -41 48 -78 54 -81 12 -8 -2 19 -55 106 -35 57 -38 68 -29 92 17 46
5 32 -35 -42 -21 -38 -41 -70 -44 -70 -4 0 -34 38 -68 85 -85 116 -99 120 -19
4z"/>
<path d="M2905 5478 c-33 -17 -62 -32 -64 -34 -2 -2 10 -19 28 -39 64 -73 100
-167 125 -324 l16 -95 -31 -47 c-69 -108 -172 -169 -289 -172 -81 -2 -80 -1
-80 -117 l0 -75 271 -74 c292 -80 291 -80 442 -49 58 12 59 13 98 79 75 126
133 292 164 466 21 124 19 227 -6 309 -24 79 -74 194 -85 194 -3 0 -3 -20 0
-45 l7 -45 -35 21 c-20 12 -36 23 -36 25 0 3 8 17 17 32 17 26 17 26 0 13 -18
-14 -57 -82 -57 -98 0 -4 9 3 20 17 26 34 34 23 66 -95 22 -83 25 -112 20
-170 -10 -109 -28 -195 -41 -195 -24 0 -270 52 -277 58 -4 4 -26 79 -49 167
-23 88 -52 181 -65 207 -24 47 -80 118 -93 118 -3 -1 -33 -15 -66 -32z m371
-639 c64 -16 127 -29 140 -29 13 0 24 -4 24 -9 0 -19 -244 34 -299 65 -22 13
-23 14 -3 9 12 -4 75 -20 138 -36z m-178 -97 l-20 -93 23 -25 c12 -13 44 -38
69 -54 l47 -30 49 17 c58 20 62 24 116 131 23 45 44 80 47 77 3 -3 -17 -49
-45 -103 l-50 -97 -56 -20 c-54 -18 -59 -18 -93 -2 -19 9 -55 35 -79 57 l-44
40 14 68 c15 72 34 135 39 130 2 -2 -6 -45 -17 -96z"/>
<path d="M3873 5401 c-71 -12 -57 -18 29 -13 99 6 151 21 68 20 -30 0 -74 -4
-97 -7z"/>
<path d="M2722 5370 c46 -8 71 -30 115 -97 34 -54 54 -72 32 -30 -49 93 -101
138 -156 136 -24 -1 -22 -2 9 -9z"/>
<path d="M4242 5334 l-37 -36 35 27 35 28 6 -49 6 -49 1 43 c1 23 7 42 12 42
6 0 10 -4 10 -8 0 -4 14 -23 31 -42 34 -39 30 -26 -13 38 -16 23 -33 42 -39
42 -5 0 -26 -16 -47 -36z"/>
<path d="M4019 5319 c-80 -39 -183 -108 -174 -117 2 -2 20 9 41 24 20 16 83
52 138 81 120 62 116 71 -5 12z"/>
<path d="M4459 5131 c33 -41 137 -118 147 -108 3 3 -7 12 -24 21 -16 8 -56 40
-88 71 -32 30 -60 55 -62 55 -2 0 10 -17 27 -39z"/>
<path d="M2862 5083 c-16 -81 -72 -189 -128 -252 -25 -28 -41 -51 -36 -51 15
0 79 77 113 135 35 59 72 174 67 207 -2 14 -8 -2 -16 -39z"/>
<path d="M2113 4723 c18 -21 18 -21 0 -17 -10 3 -29 1 -43 -5 -21 -8 -18 -10
28 -10 28 -1 52 -2 52 -3 0 -2 -7 -28 -15 -58 -8 -30 -14 -62 -14 -70 0 -8 11
20 22 62 12 42 25 79 28 82 5 6 168 -20 176 -27 3 -4 -51 -240 -63 -277 -3 -8
-1 -11 3 -6 8 8 83 289 78 294 -7 8 -182 33 -198 28 -11 -3 -31 3 -46 12 l-26
16 18 -21z"/>
<path d="M3475 4443 c43 -22 65 -44 81 -78 l14 -30 -6 35 c-8 44 -20 59 -61
77 -45 18 -65 16 -28 -4z"/>
<path d="M3413 4343 c22 -24 27 -38 27 -84 0 -38 3 -50 10 -39 5 8 10 28 10
43 0 16 4 26 9 22 5 -3 12 -1 16 5 3 5 1 10 -5 10 -6 0 -8 5 -5 10 3 6 0 10
-8 10 -8 0 -20 7 -27 16 -8 8 -23 20 -34 26 -17 8 -15 5 7 -19z"/>
<path d="M3304 4287 c38 -24 56 -48 56 -74 0 -16 5 -35 10 -43 8 -12 10 -11
10 6 0 53 -14 87 -44 105 -17 10 -35 19 -41 18 -5 0 -1 -6 9 -12z"/>
<path d="M3232 4206 c5 -23 3 -27 -13 -23 -27 7 -24 -10 4 -19 12 -3 30 -13
40 -22 21 -18 22 -4 2 22 -8 11 -15 28 -15 37 0 10 -5 21 -11 25 -8 5 -10 -1
-7 -20z"/>
<path d="M3598 1954 c-63 -22 -318 -134 -410 -180 l-88 -44 0 -85 0 -84 68 30
c38 17 156 72 263 123 l194 92 8 69 c10 94 10 95 -35 79z"/>
<path d="M4087 1835 c3 -13 13 -26 22 -29 73 -21 296 -46 409 -46 48 0 51 1
41 19 -10 15 -30 19 -123 25 -150 9 -274 25 -315 42 -18 8 -35 14 -36 14 -1 0
0 -11 2 -25z"/>
<path d="M5125 1845 c-16 -8 -42 -14 -57 -15 -22 0 -28 -5 -28 -21 0 -20 4
-21 41 -15 56 9 79 23 79 46 0 11 -1 20 -2 19 -2 0 -16 -7 -33 -14z"/>
<path d="M3485 915 c0 -44 3 -61 10 -54 13 13 13 95 0 108 -7 7 -10 -11 -10
-54z"/>
<path d="M1352 1127 c-11 -12 -23 -35 -27 -52 l-6 -30 17 30 c9 17 23 38 32
48 23 26 9 30 -16 4z"/>
</g>
</svg>
